# xmcd
#
# Track frame offsets:
# 199
# 33577
# 63251
# 93231
# 128286
# 144778
# 181897
# 201261
#
# Disc length: 3287 seconds
#
# Revision: 1
# Processed by: cddbd v1.5.2PL0 Copyright (c) Steve Scherf et al.
# Submitted via: CedeCatalogueitor 2.6.0.6 http://personales.ya.com/cdcatalogueitor
#
DISCID=600cd508
DTITLE=Sapiens - Piensa
DYEAR=1900
DGENRE=
TTITLE0=Night On Earth
TTITLE1=Hiroshima
TTITLE2=Aadat
TTITLE3=This On Avite
TTITLE4=Forward
TTITLE5=Detsivo
TTITLE6=Real De 14
TTITLE7=Wall
EXTD=
EXTT0=
EXTT1=
EXTT2=
EXTT3=
EXTT4=
EXTT5=
EXTT6=
EXTT7=
PLAYORDER=
